<svg xmlns="http://www.w3.org/2000/svg" xmlns:xlink="http://www.w3.org/1999/xlink" width="1080" zoomAndPan="magnify" viewBox="0 0 810 809.999993" height="1080" preserveAspectRatio="xMidYMid meet" version="1.0"><defs><clipPath id="971feb0390"><path d="M 0 18.226562 L 810 18.226562 L 810 791.476562 L 0 791.476562 Z M 0 18.226562 " clip-rule="nonzero"/></clipPath></defs><g clip-path="url(#971feb0390)"><path fill="currentColor" d="M 404.992188 18.226562 C 423.792969 18.226562 440.1875 31.429688 444.199219 49.734375 C 448.679688 70.230469 437.652344 89.175781 417.949219 96.621094 C 417.464844 96.789062 417.144531 97.257812 417.144531 97.777344 L 417.144531 191.269531 C 417.144531 191.824219 417.617188 192.277344 418.167969 192.277344 L 478.972656 192.277344 C 479.507812 192.277344 479.960938 191.839844 479.960938 191.324219 C 479.980469 190.601562 479.996094 174.679688 480.011719 143.5625 C 480.027344 126.234375 493.070312 110.378906 508.59375 104.859375 C 513.726562 103.03125 522.1875 102.191406 533.933594 102.34375 C 550.214844 102.542969 558.753906 102.59375 559.59375 102.527344 C 560.148438 102.476562 560.617188 102.140625 560.820312 101.640625 C 568.035156 84.792969 581.007812 74.425781 599.300781 74.445312 C 626.320312 74.476562 644.828125 100.394531 637.648438 125.878906 C 629.121094 156.125 589.933594 164.613281 569.175781 141.566406 C 565.585938 137.554688 562.851562 132.90625 560.972656 127.605469 C 560.785156 127.070312 560.300781 126.734375 559.742188 126.75 C 545.546875 126.75 535.695312 126.714844 530.207031 126.636719 C 521.75 126.5 516.175781 127.355469 513.460938 129.234375 C 505.601562 134.6875 504.3125 140.070312 504.3125 150.421875 C 504.3125 166.609375 504.347656 180.285156 504.378906 191.4375 C 504.378906 191.890625 504.75 192.261719 505.203125 192.261719 C 517.722656 192.347656 526.566406 192.347656 531.769531 192.246094 C 543.316406 192.007812 552.109375 192.632812 558.152344 194.105469 C 586.714844 201.070312 608.246094 222.054688 615.445312 250.492188 C 617.292969 257.753906 618.03125 266.75 617.628906 277.464844 C 617.578125 278.976562 617.597656 288.035156 617.660156 304.644531 C 617.675781 305.195312 618.113281 305.648438 618.667969 305.648438 C 623.234375 305.617188 641.960938 305.617188 674.855469 305.683594 C 683.683594 305.683594 689.324219 304.878906 691.773438 303.234375 C 699.171875 298.269531 701.371094 292.867188 701.253906 283.304688 C 701.21875 280.351562 701.21875 269.347656 701.238281 250.304688 C 701.253906 249.734375 700.917969 249.25 700.398438 249.046875 C 685.207031 242.910156 676.316406 232.269531 673.730469 217.140625 C 669.566406 192.832031 688.582031 171.34375 712.398438 170.738281 C 738.964844 170.066406 759.269531 195.011719 752.289062 221.082031 C 748.765625 234.265625 740.15625 243.578125 726.460938 249.03125 C 725.875 249.25 725.488281 249.820312 725.488281 250.472656 C 725.65625 264.566406 725.65625 277.414062 725.503906 289.023438 C 725.285156 306.453125 712.664062 321.789062 696.671875 327.558594 C 691.269531 329.503906 681.28125 330.277344 666.714844 329.890625 C 662.351562 329.777344 646.308594 329.757812 618.585938 329.859375 C 618.0625 329.859375 617.628906 330.277344 617.628906 330.828125 L 617.628906 391.742188 C 617.628906 392.230469 618.03125 392.632812 618.515625 392.632812 L 730.171875 392.632812 C 730.757812 392.632812 731.261719 392.265625 731.460938 391.742188 C 735.121094 382.015625 741.164062 374.734375 749.605469 369.9375 C 776.1875 354.769531 809.820312 373.859375 809.820312 404.847656 C 809.820312 435.847656 776.1875 454.921875 749.605469 439.757812 C 741.164062 434.960938 735.121094 427.695312 731.460938 417.964844 C 731.261719 417.429688 730.757812 417.074219 730.171875 417.074219 L 618.515625 417.074219 C 618.03125 417.074219 617.628906 417.480469 617.628906 417.964844 L 617.628906 478.878906 C 617.628906 479.414062 618.0625 479.851562 618.585938 479.851562 C 646.308594 479.9375 662.351562 479.9375 666.714844 479.816406 C 681.28125 479.429688 691.269531 480.207031 696.671875 482.152344 C 712.664062 487.921875 725.285156 503.253906 725.503906 520.6875 C 725.65625 532.296875 725.65625 545.144531 725.488281 559.234375 C 725.488281 559.875 725.875 560.445312 726.460938 560.679688 C 740.15625 566.132812 748.765625 575.441406 752.289062 588.628906 C 759.269531 614.699219 738.964844 639.640625 712.398438 638.972656 C 688.582031 638.367188 669.566406 616.878906 673.730469 592.570312 C 676.316406 577.4375 685.207031 566.800781 700.398438 560.660156 C 700.917969 560.460938 701.253906 559.957031 701.238281 559.40625 C 701.21875 540.363281 701.21875 529.359375 701.253906 526.40625 C 701.371094 516.84375 699.171875 511.4375 691.773438 506.476562 C 689.324219 504.832031 683.683594 504.007812 674.855469 504.027344 C 641.960938 504.078125 623.230469 504.09375 618.667969 504.0625 C 618.113281 504.0625 617.675781 504.511719 617.660156 505.066406 C 617.597656 521.675781 617.578125 530.734375 617.628906 532.242188 C 618.03125 542.964844 617.292969 551.957031 615.445312 559.21875 C 608.246094 587.65625 586.714844 608.640625 558.152344 615.601562 C 552.109375 617.082031 543.316406 617.699219 531.769531 617.464844 C 526.566406 617.367188 517.722656 617.367188 505.203125 617.449219 C 504.75 617.449219 504.378906 617.816406 504.378906 618.273438 C 504.347656 629.425781 504.3125 643.097656 504.3125 659.289062 C 504.3125 669.640625 505.601562 675.023438 513.460938 680.476562 C 516.175781 682.339844 521.75 683.210938 530.207031 683.078125 C 535.695312 682.992188 545.546875 682.941406 559.742188 682.957031 C 560.300781 682.972656 560.785156 682.625 560.972656 682.105469 C 562.851562 676.800781 565.585938 672.15625 569.175781 668.144531 C 589.933594 645.09375 629.121094 653.585938 637.648438 683.832031 C 644.828125 709.3125 626.320312 735.234375 599.300781 735.265625 C 581.007812 735.285156 568.035156 724.914062 560.820312 708.070312 C 560.617188 707.570312 560.148438 707.214844 559.59375 707.183594 C 558.753906 707.101562 550.214844 707.164062 533.933594 707.367188 C 522.1875 707.519531 513.726562 706.679688 508.59375 704.851562 C 493.070312 699.332031 480.027344 683.480469 480.011719 666.148438 C 479.996094 635.027344 479.980469 619.109375 479.960938 618.386719 C 479.960938 617.851562 479.507812 617.433594 478.972656 617.433594 L 418.167969 617.433594 C 417.617188 617.433594 417.144531 617.886719 417.144531 618.4375 L 417.144531 711.929688 C 417.144531 712.449219 417.464844 712.902344 417.949219 713.089844 C 437.652344 720.535156 448.679688 739.480469 444.199219 759.960938 C 440.1875 778.265625 423.792969 791.464844 404.992188 791.464844 C 386.179688 791.464844 369.785156 778.265625 365.773438 759.960938 C 361.292969 739.480469 372.320312 720.535156 392.023438 713.089844 C 392.507812 712.902344 392.828125 712.449219 392.828125 711.929688 L 392.828125 618.4375 C 392.828125 617.886719 392.375 617.433594 391.804688 617.433594 L 331 617.433594 C 330.464844 617.433594 330.027344 617.851562 330.011719 618.386719 C 329.996094 619.109375 329.976562 635.027344 329.960938 666.148438 C 329.945312 683.480469 316.902344 699.332031 301.378906 704.851562 C 296.246094 706.679688 287.804688 707.519531 276.039062 707.367188 C 259.777344 707.164062 251.21875 707.101562 250.378906 707.183594 C 249.839844 707.214844 249.355469 707.570312 249.152344 708.070312 C 241.9375 724.914062 228.964844 735.285156 210.671875 735.265625 C 183.652344 735.234375 165.140625 709.3125 172.324219 683.832031 C 180.851562 653.585938 220.039062 645.09375 240.796875 668.144531 C 244.40625 672.15625 247.140625 676.800781 249.003906 682.105469 C 249.1875 682.625 249.671875 682.972656 250.230469 682.957031 C 264.441406 682.941406 274.277344 682.992188 279.765625 683.078125 C 288.222656 683.210938 293.8125 682.339844 296.515625 680.476562 C 304.367188 675.023438 305.660156 669.640625 305.660156 659.289062 C 305.660156 643.097656 305.644531 629.425781 305.59375 618.273438 C 305.59375 617.816406 305.222656 617.449219 304.769531 617.449219 C 292.269531 617.367188 283.40625 617.367188 278.203125 617.464844 C 266.675781 617.699219 257.882812 617.082031 251.824219 615.601562 C 223.257812 608.640625 201.726562 587.65625 194.527344 559.21875 C 192.679688 551.957031 191.960938 542.964844 192.34375 532.242188 C 192.394531 530.734375 192.394531 521.675781 192.3125 505.066406 C 192.296875 504.511719 191.859375 504.0625 191.304688 504.0625 C 186.742188 504.09375 168.011719 504.078125 135.117188 504.027344 C 126.289062 504.007812 120.652344 504.832031 118.203125 506.476562 C 110.800781 511.441406 108.601562 516.84375 108.71875 526.40625 C 108.753906 529.359375 108.753906 540.363281 108.738281 559.40625 C 108.71875 559.957031 109.054688 560.460938 109.574219 560.660156 C 124.765625 566.800781 133.660156 577.4375 136.242188 592.570312 C 140.40625 616.878906 121.390625 638.367188 97.574219 638.972656 C 71.011719 639.640625 50.703125 614.699219 57.683594 588.628906 C 61.226562 575.441406 69.832031 566.132812 83.511719 560.679688 C 84.101562 560.445312 84.488281 559.875 84.488281 559.234375 C 84.335938 545.144531 84.320312 532.296875 84.46875 520.6875 C 84.6875 503.253906 97.308594 487.921875 113.300781 482.152344 C 118.722656 480.207031 128.707031 479.429688 143.257812 479.816406 C 147.636719 479.9375 163.683594 479.9375 191.390625 479.851562 C 191.910156 479.851562 192.34375 479.414062 192.34375 478.878906 L 192.34375 417.964844 C 192.34375 417.480469 191.941406 417.074219 191.457031 417.074219 L 79.804688 417.074219 C 79.230469 417.074219 78.710938 417.429688 78.511719 417.964844 C 74.851562 427.695312 68.8125 434.960938 60.386719 439.757812 C 33.785156 454.921875 0.171875 435.847656 0.171875 404.847656 C 0.171875 373.863281 33.785156 354.769531 60.386719 369.9375 C 68.8125 374.734375 74.851562 381.996094 78.511719 391.730469 C 78.710938 392.265625 79.230469 392.617188 79.804688 392.617188 L 191.457031 392.617188 C 191.941406 392.617188 192.34375 392.230469 192.34375 391.730469 L 192.34375 330.816406 C 192.34375 330.277344 191.910156 329.839844 191.390625 329.839844 C 163.683594 329.757812 147.636719 329.777344 143.257812 329.875 C 128.707031 330.277344 118.722656 329.492188 113.300781 327.542969 C 97.308594 321.773438 84.6875 306.4375 84.46875 289.007812 C 84.316406 277.402344 84.335938 264.550781 84.484375 250.457031 C 84.484375 249.820312 84.101562 249.25 83.511719 249.015625 C 69.832031 243.578125 61.226562 234.25 57.683594 221.066406 C 50.703125 195 71.011719 170.050781 97.574219 170.71875 C 121.390625 171.324219 140.40625 192.8125 136.242188 217.125 C 133.660156 232.253906 124.761719 242.890625 109.574219 249.03125 C 109.054688 249.234375 108.71875 249.734375 108.738281 250.289062 C 108.753906 269.347656 108.753906 280.335938 108.71875 283.289062 C 108.601562 292.847656 110.800781 298.25 118.203125 303.21875 C 120.652344 304.863281 126.289062 305.683594 135.117188 305.667969 C 168.011719 305.617188 186.742188 305.601562 191.304688 305.632812 C 191.859375 305.632812 192.296875 305.195312 192.3125 304.628906 C 192.394531 288.019531 192.394531 278.957031 192.34375 277.449219 C 191.960938 266.75 192.679688 257.753906 194.527344 250.472656 C 201.726562 222.039062 223.257812 201.050781 251.824219 194.089844 C 257.882812 192.613281 266.675781 191.992188 278.203125 192.230469 C 283.40625 192.328125 292.269531 192.347656 304.769531 192.246094 C 305.222656 192.246094 305.59375 191.890625 305.59375 191.421875 C 305.644531 180.285156 305.660156 166.609375 305.660156 150.40625 C 305.660156 140.054688 304.367188 134.667969 296.515625 129.21875 C 293.8125 127.355469 288.222656 126.480469 279.765625 126.617188 C 274.277344 126.71875 264.441406 126.75 250.230469 126.734375 C 249.671875 126.734375 249.1875 127.070312 249.003906 127.589844 C 247.140625 132.890625 244.40625 137.554688 240.796875 141.546875 C 220.035156 164.597656 180.851562 156.109375 172.324219 125.863281 C 165.140625 100.378906 183.652344 74.460938 210.671875 74.425781 C 228.964844 74.410156 241.9375 84.777344 249.152344 101.621094 C 249.355469 102.140625 249.839844 102.476562 250.378906 102.507812 C 251.21875 102.59375 259.777344 102.527344 276.039062 102.324219 C 287.804688 102.191406 296.246094 103.03125 301.378906 104.84375 C 316.902344 110.359375 329.945312 126.214844 329.960938 143.542969 C 329.976562 174.679688 329.996094 190.601562 330.011719 191.304688 C 330.027344 191.839844 330.464844 192.261719 331 192.261719 L 391.804688 192.277344 C 392.375 192.277344 392.828125 191.824219 392.828125 191.269531 L 392.828125 97.777344 C 392.828125 97.257812 392.507812 96.789062 392.023438 96.621094 C 372.320312 89.175781 361.292969 70.230469 365.773438 49.734375 C 369.785156 31.429688 386.179688 18.226562 404.992188 18.226562 M 420.71875 58.523438 C 420.71875 49.78125 413.636719 42.703125 404.894531 42.703125 C 396.152344 42.703125 389.066406 49.78125 389.066406 58.523438 C 389.066406 67.265625 396.152344 74.34375 404.894531 74.34375 C 413.636719 74.34375 420.71875 67.265625 420.71875 58.523438 M 226.800781 114.65625 C 226.800781 105.898438 219.683594 98.785156 210.925781 98.785156 C 202.164062 98.785156 195.046875 105.898438 195.046875 114.65625 C 195.046875 123.414062 202.164062 130.527344 210.925781 130.527344 C 219.683594 130.527344 226.800781 123.414062 226.800781 114.65625 M 614.925781 114.640625 C 614.925781 105.882812 607.824219 98.785156 599.066406 98.785156 C 590.308594 98.785156 583.207031 105.882812 583.207031 114.640625 C 583.207031 123.398438 590.308594 130.492188 599.066406 130.492188 C 607.824219 130.492188 614.925781 123.394531 614.925781 114.640625 M 112.410156 210.867188 C 112.410156 202.125 105.328125 195.046875 96.585938 195.046875 C 87.84375 195.046875 80.761719 202.125 80.761719 210.867188 C 80.761719 219.605469 87.84375 226.6875 96.585938 226.6875 C 105.328125 226.6875 112.410156 219.605469 112.410156 210.867188 M 729.28125 210.898438 C 729.28125 202.160156 722.179688 195.0625 713.4375 195.0625 C 704.695312 195.0625 697.59375 202.160156 697.59375 210.898438 C 697.59375 219.640625 704.695312 226.738281 713.4375 226.738281 C 722.179688 226.738281 729.28125 219.640625 729.28125 210.898438 M 593.460938 269.28125 C 593.460938 240.175781 569.847656 216.570312 540.730469 216.570312 L 269.257812 216.570312 C 240.140625 216.570312 216.527344 240.175781 216.527344 269.28125 L 216.527344 540.480469 C 216.527344 569.585938 240.140625 593.191406 269.257812 593.191406 L 540.730469 593.191406 C 569.847656 593.191406 593.460938 569.585938 593.460938 540.480469 L 593.460938 269.28125 M 56.257812 404.777344 C 56.257812 396.039062 49.160156 388.941406 40.414062 388.941406 C 31.671875 388.941406 24.574219 396.039062 24.574219 404.777344 C 24.574219 413.519531 31.671875 420.617188 40.414062 420.617188 C 49.160156 420.617188 56.257812 413.519531 56.257812 404.777344 M 785.433594 404.8125 C 785.433594 396.058594 778.335938 388.960938 769.574219 388.960938 C 760.8125 388.960938 753.714844 396.058594 753.714844 404.8125 C 753.714844 413.570312 760.8125 420.667969 769.574219 420.667969 C 778.335938 420.667969 785.433594 413.570312 785.433594 404.8125 M 112.445312 598.910156 C 112.445312 590.152344 105.347656 583.058594 96.585938 583.058594 C 87.824219 583.058594 80.726562 590.152344 80.726562 598.910156 C 80.726562 607.667969 87.824219 614.765625 96.585938 614.765625 C 105.347656 614.765625 112.445312 607.667969 112.445312 598.910156 M 729.296875 598.894531 C 729.296875 590.136719 722.199219 583.042969 713.4375 583.042969 C 704.675781 583.042969 697.582031 590.136719 697.582031 598.894531 C 697.582031 607.652344 704.675781 614.746094 713.4375 614.746094 C 722.199219 614.746094 729.296875 607.652344 729.296875 598.894531 M 226.714844 695.105469 C 226.714844 686.363281 219.632812 679.285156 210.890625 679.285156 C 202.144531 679.285156 195.0625 686.363281 195.0625 695.105469 C 195.0625 703.847656 202.148438 710.925781 210.890625 710.925781 C 219.632812 710.925781 226.714844 703.84375 226.714844 695.105469 M 614.90625 695.121094 C 614.90625 686.382812 607.8125 679.285156 599.066406 679.285156 C 590.324219 679.285156 583.222656 686.382812 583.222656 695.121094 C 583.222656 703.859375 590.324219 710.957031 599.066406 710.957031 C 607.8125 710.957031 614.90625 703.859375 614.90625 695.121094 M 420.71875 751.238281 C 420.71875 742.496094 413.636719 735.417969 404.894531 735.417969 C 396.152344 735.417969 389.066406 742.496094 389.066406 751.238281 C 389.066406 759.976562 396.152344 767.054688 404.894531 767.054688 C 413.636719 767.054688 420.71875 759.976562 420.71875 751.238281 Z M 420.71875 751.238281 " fill-opacity="1" fill-rule="nonzero"/></g><path fill="currentColor" d="M 569.375 540.867188 C 569.375 556.550781 556.65625 569.269531 540.964844 569.269531 L 268.925781 569.269531 C 253.230469 569.269531 240.511719 556.550781 240.511719 540.867188 L 240.511719 268.828125 C 240.511719 253.140625 253.230469 240.425781 268.925781 240.425781 L 540.964844 240.425781 C 556.65625 240.425781 569.378906 253.140625 569.378906 268.828125 L 569.378906 540.867188 M 376.464844 447.84375 C 396.789062 447.894531 407.023438 447.929688 407.160156 447.945312 C 407.496094 447.976562 407.796875 448.214844 407.914062 448.53125 L 420.835938 486.765625 C 421.003906 487.269531 421.492188 487.621094 422.046875 487.621094 L 456.535156 487.621094 C 456.988281 487.621094 457.304688 487.167969 457.152344 486.730469 L 396.386719 323.128906 C 396.203125 322.660156 395.746094 322.359375 395.261719 322.359375 C 390.210938 322.289062 384.035156 322.257812 376.734375 322.242188 C 369.449219 322.226562 363.273438 322.242188 358.222656 322.273438 C 357.71875 322.273438 357.28125 322.578125 357.097656 323.046875 L 295.625 486.394531 C 295.457031 486.8125 295.773438 487.269531 296.230469 487.269531 L 330.714844 487.417969 C 331.269531 487.417969 331.757812 487.082031 331.925781 486.5625 L 345.03125 448.394531 C 345.148438 448.078125 345.433594 447.84375 345.769531 447.808594 C 345.921875 447.792969 356.140625 447.808594 376.464844 447.84375 M 511.175781 323.046875 C 511.175781 322.59375 510.824219 322.242188 510.371094 322.242188 L 479.757812 322.242188 C 479.308594 322.242188 478.953125 322.59375 478.953125 323.046875 L 478.953125 486.746094 C 478.953125 487.203125 479.308594 487.554688 479.757812 487.554688 L 510.371094 487.554688 C 510.824219 487.554688 511.175781 487.203125 511.175781 486.746094 Z M 511.175781 323.046875 " fill-opacity="1" fill-rule="nonzero"/><path fill="currentColor" d="M 355.804688 416.925781 L 375.996094 359.449219 C 376.230469 358.78125 377.167969 358.78125 377.40625 359.449219 L 397.191406 417.074219 C 397.359375 417.546875 397.007812 418.046875 396.484375 418.046875 L 356.492188 417.914062 C 355.992188 417.914062 355.636719 417.414062 355.804688 416.925781 Z M 355.804688 416.925781 " fill-opacity="1" fill-rule="nonzero"/></svg>