<svg xmlns="http://www.w3.org/2000/svg" xmlns:xlink="http://www.w3.org/1999/xlink" width="1080" zoomAndPan="magnify" viewBox="0 0 810 809.999993" height="1080" preserveAspectRatio="xMidYMid meet" version="1.0"><defs><clipPath id="0bb09ed175"><path d="M 112.894531 148 L 469 148 L 469 810 L 112.894531 810 Z M 112.894531 148 " clip-rule="nonzero"/></clipPath></defs><g clip-path="url(#0bb09ed175)"><path fill="currentColor" d="M 361.339844 148.152344 L 231.503906 479.929688 L 262.414062 160.515625 L 147.007812 160.515625 L 132.578125 648.914062 L 167.796875 648.914062 L 218.796875 571.804688 L 112.894531 809.945312 L 298.121094 504.695312 L 226.214844 648.914062 L 256.230469 648.914062 L 468.507812 148.152344 Z M 361.339844 148.152344 " fill-opacity="1" fill-rule="nonzero"/></g><path fill="currentColor" d="M 575.238281 293.746094 L 675.285156 293.746094 C 696.664062 249.945312 697.136719 208.238281 687.027344 184.203125 C 680.457031 168.597656 666.171875 159.058594 650.480469 154.09375 C 639.953125 150.757812 628.90625 149.234375 617.917969 148.554688 C 604.738281 147.746094 593.082031 148.152344 579.894531 151.792969 C 579.894531 151.792969 536.839844 215.011719 536.839844 215.011719 L 631.074219 0.0546875 L 464.730469 275.132812 L 505.972656 182.472656 C 479.242188 204.40625 458.363281 235.902344 443.335938 276.960938 C 428.667969 317.023438 432.128906 352.609375 453.722656 383.714844 L 482.527344 425.621094 C 491.058594 437.925781 497.320312 448.6875 501.308594 457.90625 C 503.292969 462.480469 504.695312 467.226562 505.519531 472.140625 C 506.339844 477.058594 506.558594 482.003906 506.167969 486.972656 C 505.429688 497.128906 502.304688 509.746094 496.785156 524.828125 C 492.417969 536.75 487.558594 545.320312 482.203125 550.539062 C 476.730469 555.875 467.941406 559.109375 460.335938 558.347656 C 438.039062 556.121094 439.914062 525.632812 444.734375 510.476562 C 447.933594 500.417969 452.832031 490.921875 458.339844 481.941406 C 460.113281 479.039062 468.988281 465.324219 473.359375 460.554688 L 377.246094 459.5 C 377.246094 459.5 317.511719 557.742188 349.183594 615.371094 C 361.332031 637.464844 389.125 648.902344 434.027344 648.902344 C 476.316406 648.902344 510.773438 635.816406 537.402344 609.640625 C 564.027344 583.46875 585.804688 547.277344 602.738281 501.070312 C 611.128906 478.160156 615.347656 458.738281 615.40625 442.8125 C 615.460938 426.886719 612.941406 412.914062 607.847656 400.894531 C 602.734375 388.859375 596.480469 377.445312 589.085938 366.664062 L 552.296875 312.175781 C 545.128906 301.746094 541.148438 292.527344 540.355469 284.515625 C 539.5625 276.503906 540.425781 269.050781 542.949219 262.15625 C 545.46875 255.273438 549.347656 249.640625 554.589844 245.257812 C 561.8125 239.21875 577.511719 235.644531 586.296875 240.261719 C 595.078125 244.882812 594.015625 255.359375 591.253906 263.464844 C 589.984375 267.125 579.925781 286.214844 575.238281 293.746094 Z M 575.238281 293.746094 " fill-opacity="1" fill-rule="nonzero"/></svg>