<svg xmlns="http://www.w3.org/2000/svg" xmlns:xlink="http://www.w3.org/1999/xlink" width="1080" zoomAndPan="magnify" viewBox="0 0 810 809.999993" height="1080" preserveAspectRatio="xMidYMid meet" version="1.0"><path fill="currentColor" d="M 755.609375 607.394531 C 701.550781 701.027344 614.265625 767.992188 509.835938 795.957031 C 474.894531 805.335938 439.53125 810 404.359375 810 C 355.011719 810 306.042969 800.785156 259.082031 782.535156 C 251.023438 791.109375 240.730469 797.316406 229.070312 800.441406 C 223.550781 801.917969 217.953125 802.648438 212.390625 802.648438 C 201.300781 802.648438 190.359375 799.746094 180.496094 794.054688 C 165.667969 785.511719 155.058594 771.699219 150.628906 755.160156 C 146.199219 738.636719 148.46875 721.378906 157.019531 706.570312 C 165.558594 691.753906 179.375 681.144531 195.914062 676.714844 C 212.433594 672.289062 229.703125 674.558594 244.527344 683.101562 C 259.347656 691.660156 269.9375 705.472656 274.359375 722.003906 C 276.582031 730.316406 277.105469 738.804688 275.996094 747.082031 C 347.839844 774.339844 424.8125 778.203125 499.691406 758.109375 C 694.398438 705.972656 810.371094 505.113281 758.230469 310.359375 C 742.671875 252.335938 712.878906 198.664062 672.070312 155.15625 C 664.667969 147.265625 665.066406 134.867188 672.957031 127.464844 C 680.847656 120.066406 693.25 120.460938 700.648438 128.351562 C 745.855469 176.550781 778.855469 235.984375 796.074219 300.222656 C 824.042969 404.679688 809.671875 513.765625 755.609375 607.394531 Z M 51.953125 499.628906 C 26.671875 405.304688 39.640625 306.78125 88.46875 222.207031 C 137.300781 137.628906 216.144531 77.140625 310.488281 51.878906 C 385.363281 31.792969 462.335938 35.65625 534.179688 62.929688 C 530.878906 87.871094 542.527344 113.539062 565.65625 126.890625 C 575.703125 132.679688 586.6875 135.433594 597.539062 135.433594 C 619.695312 135.433594 641.289062 123.960938 653.171875 103.453125 C 670.800781 72.855469 660.269531 33.597656 629.703125 15.949219 L 629.6875 15.9375 C 603.527344 0.867188 571.027344 6.40625 551.109375 27.457031 C 470.671875 -3.808594 384.316406 -8.496094 300.347656 14.03125 C 195.898438 41.996094 108.601562 108.972656 54.539062 202.617188 C 0.476562 296.253906 -13.882812 405.339844 14.109375 509.769531 C 31.464844 574.503906 64.816406 634.324219 110.554688 682.753906 C 114.40625 686.835938 119.597656 688.894531 124.800781 688.894531 C 129.625 688.894531 134.464844 687.121094 138.25 683.546875 C 146.113281 676.117188 146.46875 663.71875 139.039062 655.851562 C 97.746094 612.128906 67.632812 558.105469 51.953125 499.628906 Z M 282.355469 424.613281 L 113.816406 424.613281 C 117.484375 479.675781 136.476562 530.609375 166.574219 573.171875 C 201.726562 560.113281 244.960938 550.296875 292.765625 544.292969 C 286.753906 507.085938 283.199219 466.589844 282.355469 424.613281 Z M 282.355469 385.433594 L 113.816406 385.433594 C 117.484375 330.351562 136.480469 279.398438 166.589844 236.824219 C 201.738281 249.882812 244.96875 259.699219 292.769531 265.699219 C 286.753906 302.921875 283.199219 343.4375 282.355469 385.433594 Z M 300.132812 227.183594 C 260.085938 222.308594 223.613281 214.652344 193.015625 204.582031 C 231.832031 163.53125 282.394531 133.695312 339.269531 120.535156 C 330.289062 135.183594 321.535156 154.140625 313.441406 178.535156 C 308.433594 193.617188 303.988281 209.910156 300.132812 227.183594 Z M 405.703125 233.351562 C 383.082031 233.351562 360.894531 232.539062 339.433594 230.980469 C 342.742188 216.789062 346.480469 203.371094 350.625 190.878906 C 369.691406 133.429688 391.898438 113.046875 405.121094 113.046875 C 418.339844 113.046875 440.535156 133.429688 459.585938 190.871094 C 463.738281 203.390625 467.480469 216.839844 470.789062 231.0625 C 449.691406 232.566406 427.902344 233.351562 405.703125 233.351562 Z M 321.542969 424.613281 L 488.644531 424.613281 C 487.796875 465.378906 484.308594 504.527344 478.425781 540.226562 C 454.855469 538.402344 430.488281 537.457031 405.703125 537.457031 C 380.488281 537.457031 355.722656 538.4375 331.785156 540.320312 C 325.886719 504.59375 322.390625 465.410156 321.542969 424.613281 Z M 496.773438 178.539062 C 488.683594 154.144531 479.933594 135.183594 470.953125 120.535156 C 527.957031 133.726562 578.613281 163.675781 617.457031 204.878906 C 586.761719 214.894531 550.199219 222.496094 510.105469 227.316406 C 506.242188 209.996094 501.789062 193.660156 496.773438 178.539062 Z M 488.644531 385.433594 L 321.542969 385.433594 C 322.394531 344.613281 325.890625 305.410156 331.789062 269.671875 C 355.726562 271.558594 380.492188 272.535156 405.703125 272.535156 C 430.488281 272.535156 454.851562 271.589844 478.425781 269.765625 C 484.308594 305.476562 487.796875 344.648438 488.644531 385.433594 Z M 517.453125 265.839844 C 565.289062 259.90625 608.601562 250.15625 643.847656 237.175781 C 673.8125 279.679688 692.714844 330.5 696.371094 385.433594 L 527.832031 385.433594 C 526.988281 343.488281 523.445312 303.023438 517.453125 265.839844 Z M 527.832031 424.613281 L 696.371094 424.613281 C 692.714844 479.527344 673.8125 530.332031 643.859375 572.820312 C 608.609375 559.835938 565.292969 550.089844 517.453125 544.148438 C 523.449219 506.984375 526.988281 466.539062 527.832031 424.613281 Z M 405.703125 576.636719 C 427.902344 576.636719 449.695312 577.421875 470.792969 578.929688 C 467.480469 593.15625 463.738281 606.605469 459.585938 619.125 C 440.535156 676.566406 418.339844 696.945312 405.121094 696.945312 C 391.898438 696.945312 369.691406 676.5625 350.625 619.121094 C 346.476562 606.625 342.738281 593.203125 339.429688 579.011719 C 360.890625 577.453125 383.078125 576.636719 405.703125 576.636719 Z M 313.4375 631.464844 C 321.535156 655.855469 330.289062 674.808594 339.269531 689.457031 C 282.382812 676.300781 231.820312 646.464844 193.003906 605.414062 C 223.601562 595.34375 260.078125 587.683594 300.125 582.808594 C 303.988281 600.085938 308.433594 616.378906 313.4375 631.464844 Z M 510.105469 582.675781 C 550.207031 587.496094 586.773438 595.101562 617.472656 605.117188 C 578.625 646.320312 527.964844 676.269531 470.957031 689.460938 C 479.933594 674.808594 488.683594 655.851562 496.773438 631.460938 C 501.792969 616.339844 506.246094 600 510.105469 582.675781 Z M 510.105469 582.675781 " fill-opacity="1" fill-rule="nonzero"/></svg>