<svg xmlns="http://www.w3.org/2000/svg" xmlns:xlink="http://www.w3.org/1999/xlink" width="1080" zoomAndPan="magnify" viewBox="0 0 810 809.999993" height="1080" preserveAspectRatio="xMidYMid meet" version="1.0"><path fill="currentColor" d="M 486 119.203125 L 486 27 C 486 12.097656 473.902344 0 459 0 L 351 0 C 336.097656 0 324 12.097656 324 27 L 324 119.203125 C 301.535156 125.550781 280.179688 134.488281 260.226562 145.664062 C 260.226562 145.664062 194.992188 80.433594 194.992188 80.433594 C 184.4375 69.902344 167.347656 69.902344 156.816406 80.433594 L 80.433594 156.816406 C 69.902344 167.347656 69.902344 184.4375 80.433594 194.992188 L 145.664062 260.226562 C 134.488281 280.179688 125.578125 301.535156 119.203125 324 C 119.203125 324 27 324 27 324 C 12.097656 324 0 336.097656 0 351 L 0 459 C 0 473.902344 12.097656 486 27 486 L 119.203125 486 C 125.550781 508.464844 134.488281 529.820312 145.664062 549.773438 C 145.664062 549.773438 80.433594 615.007812 80.433594 615.007812 C 69.902344 625.5625 69.902344 642.652344 80.433594 653.183594 L 156.816406 729.566406 C 167.347656 740.097656 184.4375 740.097656 194.992188 729.566406 L 260.226562 664.335938 C 280.179688 675.511719 301.535156 684.421875 324 690.796875 C 324 690.796875 324 783 324 783 C 324 797.902344 336.097656 810 351 810 L 459 810 C 473.902344 810 486 797.902344 486 783 L 486 690.796875 C 508.464844 684.449219 529.820312 675.511719 549.773438 664.335938 C 549.773438 664.335938 615.007812 729.566406 615.007812 729.566406 C 625.5625 740.097656 642.652344 740.097656 653.183594 729.566406 L 729.566406 653.183594 C 740.097656 642.652344 740.097656 625.5625 729.566406 615.007812 L 664.335938 549.773438 C 675.511719 529.820312 684.421875 508.464844 690.796875 486 C 690.796875 486 783 486 783 486 C 797.902344 486 810 473.902344 810 459 L 810 351 C 810 336.097656 797.902344 324 783 324 L 690.796875 324 C 684.449219 301.535156 675.511719 280.179688 664.335938 260.226562 C 664.335938 260.226562 729.566406 194.992188 729.566406 194.992188 C 740.097656 184.4375 740.097656 167.347656 729.566406 156.816406 L 653.183594 80.433594 C 642.652344 69.902344 625.5625 69.902344 615.007812 80.433594 L 549.773438 145.664062 C 529.820312 134.488281 508.464844 125.578125 486 119.203125 Z M 432 140.398438 C 432 153.253906 441.046875 164.320312 453.628906 166.859375 C 484.621094 173.179688 513.457031 185.382812 538.945312 202.285156 C 549.664062 209.359375 563.867188 207.925781 572.96875 198.855469 L 634.09375 137.726562 C 634.09375 137.699219 672.300781 175.90625 672.300781 175.90625 C 672.273438 175.90625 611.144531 237.03125 611.144531 237.03125 C 602.074219 246.132812 600.640625 260.335938 607.714844 271.054688 C 624.617188 296.539062 636.820312 325.378906 643.140625 356.371094 C 645.679688 368.953125 656.746094 378 669.601562 378 L 756 378 C 756 378 756 432 756 432 C 756 432 669.601562 432 669.601562 432 C 656.746094 432 645.679688 441.046875 643.140625 453.628906 C 636.820312 484.621094 624.617188 513.460938 607.714844 538.945312 C 600.640625 549.664062 602.074219 563.867188 611.144531 572.96875 L 672.273438 634.09375 C 672.300781 634.09375 634.09375 672.300781 634.09375 672.300781 C 634.09375 672.273438 572.96875 611.144531 572.96875 611.144531 C 563.867188 602.074219 549.667969 600.640625 538.945312 607.714844 C 513.460938 624.617188 484.621094 636.820312 453.628906 643.140625 C 441.046875 645.679688 432 656.746094 432 669.601562 L 432 756 C 432 756 378 756 378 756 C 378 756 378 669.601562 378 669.601562 C 378 656.746094 368.953125 645.679688 356.375 643.140625 C 325.378906 636.820312 296.542969 624.617188 271.054688 607.714844 C 260.335938 600.640625 246.132812 602.074219 237.03125 611.144531 L 175.90625 672.273438 C 175.90625 672.300781 137.699219 634.09375 137.699219 634.09375 C 137.726562 634.09375 198.855469 572.96875 198.855469 572.96875 C 207.925781 563.867188 209.359375 549.667969 202.285156 538.945312 C 185.382812 513.460938 173.179688 484.621094 166.859375 453.628906 C 164.320312 441.046875 153.253906 432 140.398438 432 L 54 432 C 54 432 54 378 54 378 C 54 378 140.398438 378 140.398438 378 C 153.253906 378 164.320312 368.953125 166.859375 356.375 C 173.179688 325.378906 185.382812 296.542969 202.285156 271.054688 C 209.359375 260.335938 207.925781 246.132812 198.855469 237.03125 L 137.726562 175.90625 C 137.699219 175.90625 175.90625 137.699219 175.90625 137.699219 C 175.90625 137.726562 237.03125 198.855469 237.03125 198.855469 C 246.132812 207.925781 260.335938 209.359375 271.054688 202.285156 C 296.542969 185.382812 325.378906 173.179688 356.371094 166.859375 C 368.953125 164.320312 378 153.253906 378 140.398438 L 378 54 C 378 54 432 54 432 54 C 432 54 432 140.398438 432 140.398438 Z M 405 189 C 285.796875 189 189 285.796875 189 405 C 189 524.203125 285.796875 621 405 621 C 524.203125 621 621 524.203125 621 405 C 621 285.796875 524.203125 189 405 189 Z M 405 243 C 494.398438 243 567 315.601562 567 405 C 567 494.398438 494.398438 567 405 567 C 315.601562 567 243 494.398438 243 405 C 243 315.601562 315.601562 243 405 243 Z M 405 243 " fill-opacity="1" fill-rule="evenodd"/></svg>